<?xml version="1.0" encoding="UTF-8"?>
<svg width="800" height="200" viewBox="0 0 800 200" fill="none" xmlns="http://www.w3.org/2000/svg">
  <!-- 背景渐变 -->
  <defs>
    <linearGradient id="grad1" x1="0%" y1="0%" x2="100%" y2="0%">
      <stop offset="0%" style="stop-color:#4299E1;stop-opacity:1" />
      <stop offset="100%" style="stop-color:#63B3ED;stop-opacity:1" />
    </linearGradient>
  </defs>
  
  <!-- 背景 -->
  <rect width="800" height="200" fill="url(#grad1)" rx="10"/>
  
  <!-- 城市剪影 -->
  <path d="M0 150 L50 140 L100 150 L150 145 L200 155 L250 140 L300 150 L350 145 L400 155 L450 140 L500 150 L550 145 L600 155 L650 140 L700 150 L750 145 L800 150 L800 200 L0 200 Z" fill="#2B6CB0"/>
  
  <!-- 装饰性圆点 -->
  <circle cx="150" cy="50" r="3" fill="white" opacity="0.5"/>
  <circle cx="300" cy="70" r="2" fill="white" opacity="0.4"/>
  <circle cx="450" cy="40" r="4" fill="white" opacity="0.6"/>
  <circle cx="600" cy="60" r="3" fill="white" opacity="0.5"/>
  <circle cx="750" cy="30" r="2" fill="white" opacity="0.4"/>
  
  <!-- 主标题 -->
  <text x="400" y="100" font-family="Arial, sans-serif" font-size="36" fill="white" text-anchor="middle" font-weight="bold">惠州市空气质量监测平台</text>
  
  <!-- 副标题 -->
  <text x="400" y="140" font-family="Arial, sans-serif" font-size="18" fill="white" text-anchor="middle" opacity="0.8">专业 · 精准 · 实时</text>
</svg> 