<?xml version="1.0" encoding="UTF-8"?>
<svg width="32" height="32" viewBox="0 0 32 32" fill="none" xmlns="http://www.w3.org/2000/svg">
  <!-- 背景圆 -->
  <circle cx="16" cy="16" r="16" fill="#4299E1"/>
  
  <!-- 云朵 -->
  <path d="M22 18.5C22 20.433 20.433 22 18.5 22H10C7.791 22 6 20.209 6 18C6 15.791 7.791 14 10 14C10.342 14 10.675 14.043 11 14.12C11.931 11.704 14.262 10 17 10C20.314 10 23 12.686 23 16C23 16.91 22.79 17.768 22.424 18.534C22.275 18.516 22.139 18.5 22 18.5Z" fill="white"/>
  
  <!-- 太阳光芒 -->
  <circle cx="17" cy="16" r="3" fill="#F6E05E"/>
  <path d="M17 7V9M17 23V25M25 16H23M11 16H9M22.5 10.5L21 12M13 20L11.5 21.5M22.5 21.5L21 20M13 12L11.5 10.5" stroke="#F6E05E" stroke-width="2" stroke-linecap="round"/>
</svg> 